HIERARCHY
ROOT hip
{
	OFFSET 0.000000 0.000000 0.000000 
	CHANNELS 6 Xposition Yposition Zposition Xrotation Zrotation Yrotation
	JOINT abdomen
	{
		OFFSET 0.000000 3.402643 0.000000 
		CHANNELS 3 Xrotation Zrotation Yrotation
		JOINT chest
		{
			OFFSET 0.000000 8.438565 -0.680529 
			CHANNELS 3 Xrotation Zrotation Yrotation
			JOINT neck
			{
				OFFSET 0.000000 10.207942 -0.272212 
				CHANNELS 3 Xrotation Zrotation Yrotation
				JOINT head
				{
					OFFSET 0.000000 3.130431 0.000000 
					CHANNELS 3 Xrotation Zrotation Yrotation
					End Site
					{
						OFFSET 0.000000 3.130435 0.000000 
					}
				}
			}
			JOINT lCollar
			{
				OFFSET 3.470700 6.669187 -0.816635 
				CHANNELS 3 Yrotation Zrotation Xrotation
				JOINT lShldr
				{
					OFFSET 3.198488 0.000000 0.000000 
					CHANNELS 3 Zrotation Yrotation Xrotation
					JOINT lForeArm
					{
						OFFSET 10.139888 0.000000 0.000000 
						CHANNELS 3 Yrotation Zrotation Xrotation
						JOINT lHand
						{
							OFFSET 8.370511 0.000000 0.000000 
							CHANNELS 3 Zrotation Yrotation Xrotation
							End Site
							{
								OFFSET 4.083176 0.000000 0.000000 
							}
						}
					}
				}
			}
			JOINT rCollar
			{
				OFFSET -3.470700 6.669187 -0.816635 
				CHANNELS 3 Yrotation Zrotation Xrotation
				JOINT rShldr
				{
					OFFSET -3.198488 0.000000 0.000000 
					CHANNELS 3 Zrotation Yrotation Xrotation
					JOINT rForeArm
					{
						OFFSET -10.139888 0.000000 0.000000 
						CHANNELS 3 Yrotation Zrotation Xrotation
						JOINT rHand
						{
							OFFSET -8.370511 0.000000 0.000000 
							CHANNELS 3 Zrotation Yrotation Xrotation
							End Site
							{
								OFFSET -4.083176 0.000000 0.000000 
							}
						}
					}
				}
			}
		}
	}
	JOINT lThigh
	{
		OFFSET 5.308129 -1.633274 1.361059 
		CHANNELS 3 Xrotation Zrotation Yrotation
		JOINT lShin
		{
			OFFSET -2.041588 -20.007561 0.000000 
			CHANNELS 3 Xrotation Zrotation Yrotation
			JOINT lFoot
			{
				OFFSET 0.000000 -19.190928 -1.224953 
				CHANNELS 3 Xrotation Yrotation Zrotation
				End Site
				{
					OFFSET 0.000000 -2.449906 4.627600 
				}
			}
		}
	}
	JOINT rThigh
	{
		OFFSET -5.308129 -1.633274 1.361059 
		CHANNELS 3 Xrotation Zrotation Yrotation
		JOINT rShin
		{
			OFFSET 2.041588 -20.007561 0.000000 
			CHANNELS 3 Xrotation Zrotation Yrotation
			JOINT rFoot
			{
				OFFSET 0.000000 -19.190928 -1.224953 
				CHANNELS 3 Xrotation Yrotation Zrotation
				End Site
				{
					OFFSET 0.000000 -2.449906 4.627600 
				}
			}
		}
	}
}
MOTION
Frames: 6
Frame Time: 0.011111
14.718552 50.502697 2.214206 -3.944358 -2.159169 -10.746716 42.251053 -0.293593 3.330454 -30.280449 5.804284 0.563266 -10.716928 -6.526613 -5.466825 42.218971 3.663731 -11.977673 2.656661 -4.973740 1.830115 -72.161804 -13.163413 3.649457 -53.318787 8.382116 9.511333 8.524705 12.647240 -42.034554 -4.438679 -1.473473 2.444106 72.330162 23.148687 -36.314594 75.260742 -8.192127 19.785929 -8.534408 -12.637552 92.962746 -21.650854 5.096539 -6.576199 34.367950 -5.069602 -5.424688 -7.402603 1.953576 -2.912215 7.822862 -2.428752 -0.069410 53.141781 3.458678 7.501764 10.785615 -2.250000 2.800083 
14.740626 50.540096 2.924886 -4.155348 -2.043951 -11.405900 42.364403 -0.631343 3.315531 -30.093994 5.817746 0.619267 -11.190644 -6.201803 -5.251384 42.242935 3.162564 -11.675410 2.656661 -4.973740 1.830115 -72.127327 -13.379046 3.658043 -53.351212 8.392135 9.531497 8.524705 12.647240 -42.044323 -4.438679 -1.473473 2.444106 72.470299 22.790154 -36.587749 76.564972 -7.817507 20.483761 -8.534408 -12.637552 94.359238 -20.629448 4.940321 -5.740847 34.945709 -5.015269 -5.508330 -8.505919 1.760311 -2.897199 6.014862 -2.977593 0.228762 55.934483 3.165341 7.771108 13.867594 -3.289462 2.865000 
14.762089 50.572601 3.616557 -4.510224 -1.550599 -11.907893 42.515202 -1.273577 2.922339 -30.134050 5.895457 0.603961 -11.007723 -6.230666 -5.044903 41.888477 3.370495 -11.169724 2.656661 -4.973740 1.830115 -71.988403 -13.323400 3.888372 -53.445015 8.404583 9.564527 8.524705 12.647240 -41.790413 -4.438679 -1.473473 2.444106 72.607040 22.187304 -36.883518 77.856842 -7.385086 21.207487 -8.534408 -12.637552 95.619003 -19.338688 4.315269 -4.962750 35.232697 -5.011481 -5.522602 -9.330732 1.491623 -2.901513 4.295105 -3.923935 0.330156 58.723766 2.872308 8.018211 16.273853 -5.034267 3.192611 
14.772206 50.618587 4.292898 -4.878141 -0.935461 -12.152726 42.659374 -1.867890 2.269022 -30.263626 6.063421 0.516716 -10.759301 -6.423837 -4.845973 41.531422 3.565346 -10.702671 2.656661 -4.973740 1.830115 -71.961731 -13.011394 4.266466 -53.867088 8.482364 9.743840 8.524705 12.647240 -41.497448 -4.438679 -1.473473 2.444106 72.687752 21.469727 -36.927567 79.164650 -6.868494 21.971733 -8.534408 -12.637552 96.615097 -17.967939 3.495701 -4.260662 35.212963 -5.011423 -5.520857 -9.883313 1.116211 -2.950560 2.487608 -4.924719 0.186843 61.470711 2.549481 8.251593 17.934019 -7.992442 4.048414 
14.763008 50.678066 4.942565 -5.178936 -0.348678 -12.412603 42.859684 -2.473009 1.588782 -30.364676 6.298395 0.420662 -10.565755 -6.445368 -4.644605 41.116638 3.369009 -10.356272 2.656661 -4.973740 1.830115 -71.899277 -12.856433 4.801850 -54.426395 8.578697 9.980800 8.524705 12.647240 -41.155655 -4.438679 -1.473473 2.444106 72.675056 21.049870 -36.683811 80.413292 -6.288961 22.746468 -8.534408 -12.637552 97.044785 -16.569824 2.792591 -3.521744 34.955540 -5.020932 -5.491479 -10.426302 0.844062 -2.985892 0.517481 -5.766549 0.142203 64.165833 2.226916 8.466382 18.197306 -10.277119 4.783783 
14.749825 50.736317 5.569546 -5.460869 0.318301 -12.676647 43.080353 -3.137887 0.763868 -30.358101 6.547383 0.305198 -10.777181 -6.155201 -4.308270 41.018707 2.816148 -9.813033 2.656661 -4.973740 1.830115 -71.800354 -12.829228 5.384881 -55.113327 8.691006 10.272950 8.524705 12.647240 -40.579479 -4.438679 -1.473473 2.444106 72.615387 20.866886 -36.377304 81.508484 -5.695942 23.461290 -8.534408 -12.637552 96.644386 -15.174409 2.020969 -2.853063 34.657269 -5.040687 -5.460870 -10.975164 0.602604 -3.008808 -1.473070 -6.693806 0.052086 66.682808 1.925055 8.656103 16.617365 -11.567161 5.097984 
